<svg width="99" height="99" viewBox="0 0 99 99" fill="none" xmlns="http://www.w3.org/2000/svg">
<circle cx="49.5" cy="49.5" r="48" stroke="#BA9166" stroke-width="3"/>
<circle cx="49.5" cy="49.5" r="40" stroke="#BA9166"/>
<path d="M63.0693 34H47.3215C45.8431 29.1437 41.2811 25.5076 35.8961 25.5076C29.3204 25.5269 24 30.8627 24 37.4388C24 44.0144 29.3204 49.3506 35.8961 49.3699C36.3332 49.3768 36.7707 49.3594 37.2062 49.3187L37.1315 58.9012H31.5657C31.1088 58.9012 30.6947 59.2294 30.6947 59.6859V61.3447C30.6947 64.8315 33.3812 67.6855 36.6876 67.8429V67.8905H57.2492V67.8372C57.3525 67.8453 57.4917 67.8505 57.6209 67.8505C61.069 67.8505 63.862 64.932 63.862 61.3447V34.8326C63.8696 34.6163 63.7901 34.406 63.6408 34.2494C63.4918 34.0928 63.2856 34.0028 63.0693 34ZM25.6193 37.4408C25.6193 31.7648 30.2205 27.164 35.8961 27.164C41.5721 27.164 46.1728 31.7648 46.1728 37.4408C46.1728 43.1164 41.5721 47.7175 35.8961 47.7175C30.2229 47.7111 25.6258 43.1139 25.6193 37.4408ZM36.9923 66.2373C34.4556 66.2373 32.3479 64.0207 32.3479 61.3447V60.5544H51.3597V61.3447C51.3722 63.1965 52.139 64.9635 53.4835 66.2373H36.9923ZM62.2088 61.3447C62.2088 64.0207 60.1471 66.1973 57.6108 66.1973C55.0741 66.1973 53.0129 64.0207 53.0129 61.3447V59.6859C53.0177 59.474 52.935 59.2697 52.784 59.1212C52.6331 58.9723 52.4276 58.8928 52.2161 58.9012H38.7847L38.8614 49.0184C39.8305 48.7581 40.7628 48.3762 41.6366 47.8826C41.7904 48.0037 41.9833 48.0638 42.1783 48.0521H57.3065C57.763 48.0521 58.1331 47.682 58.1331 47.2255C58.1331 46.7691 57.763 46.3989 57.3065 46.3989H43.7136C44.9499 45.3411 45.9549 44.0398 46.6661 42.5759H49.6225C50.079 42.5759 50.4491 42.2058 50.4491 41.7493C50.4491 41.2928 50.079 40.9227 49.6225 40.9227H47.309C47.6501 39.7934 47.824 38.6205 47.8256 37.4408C47.8244 36.8426 47.78 36.2449 47.6929 35.6532H62.2088V61.3447Z" fill="#BA9166"/>
<path d="M57.3065 52.4951H42.1787C41.7222 52.4951 41.3521 52.8652 41.3521 53.3217C41.3521 53.7782 41.7222 54.1483 42.1787 54.1483H57.3065C57.7629 54.1483 58.1331 53.7782 58.1331 53.3217C58.1331 52.8652 57.7629 52.4951 57.3065 52.4951Z" fill="#BA9166"/>
<path d="M43.5446 40.4836L40.777 37.7156C40.4682 37.4069 40.0489 37.2345 39.6122 37.237C39.1754 37.2394 38.7581 37.4166 38.453 37.7286L37.8665 38.3279C37.4851 38.7202 37.3249 39.2772 37.4395 39.812L37.1017 40.1498L33.183 36.232L33.5079 35.9071C33.627 35.9345 33.7489 35.9486 33.8716 35.9494C34.3047 35.9502 34.7208 35.7779 35.0267 35.4716L35.6241 34.8742C36.2614 34.2357 36.2614 33.2016 35.6241 32.5631L32.8561 29.7948C32.2176 29.1574 31.1835 29.1574 30.545 29.7948L29.9477 30.3921C29.4738 30.8659 29.3374 31.5811 29.6038 32.1962L28.7917 33.0087C27.4279 34.3721 27.4279 36.5827 28.7917 37.9461L35.3867 44.5415C36.7501 45.9049 38.9611 45.9049 40.3245 44.5415L41.1362 43.7529C41.3441 43.8546 41.5713 43.9111 41.8026 43.9192H41.8118C42.2518 43.9103 42.6695 43.725 42.971 43.4046L43.5575 42.7935C44.1806 42.1473 44.175 41.1225 43.5446 40.4836ZM31.7005 30.9777L34.4419 33.7187L33.8716 34.289L31.1302 31.5476L31.7005 30.9777ZM37.8556 43.9115C37.3677 43.9131 36.8999 43.719 36.5556 43.3731L29.961 36.7776C29.243 36.0596 29.243 34.8956 29.961 34.178L30.6919 33.447L32.1611 34.9162L32.0016 35.0752C31.3853 35.679 31.351 36.6598 31.9233 37.3052C31.9488 37.3338 31.975 37.3613 31.9956 37.3815L35.9587 41.3441C36.5943 41.9746 37.6199 41.9717 38.2524 41.3385L38.4223 41.1685L39.8906 42.6381L39.1553 43.3731C38.8114 43.719 38.3432 43.9127 37.8556 43.9115ZM41.8026 42.2119L39.0616 39.471L39.6214 38.8986L42.3624 41.6396L41.8026 42.2119Z" fill="#BA9166"/>
<path d="M70.6221 43.9959C70.4825 43.7154 70.1959 43.5382 69.8827 43.5382C69.5691 43.5382 69.2829 43.7154 69.1429 43.9959L65.8522 50.5925C65.7949 50.7076 65.765 50.8339 65.7654 50.9627L65.7872 70.5899C65.7933 72.7537 67.5494 74.5046 69.7136 74.5033H70.0518C72.2156 74.5046 73.9721 72.7537 73.9781 70.5899L73.9999 50.9582C74.0003 50.8303 73.9705 50.7043 73.9132 50.5901L70.6221 43.9959ZM69.8827 46.2004L71.8374 50.1187H67.928L69.8827 46.2004ZM67.4194 51.7719H72.3459L72.3286 67.3739H67.4368L67.4194 51.7719ZM70.0518 72.8502H69.7136C69.1142 72.8554 68.537 72.6217 68.1108 72.2007C67.6842 71.7794 67.4428 71.2058 67.4404 70.6065L67.4384 69.0271H72.327L72.3249 70.6065C72.3225 71.2058 72.0812 71.7794 71.6545 72.2007C71.2279 72.6217 70.6512 72.8554 70.0518 72.8502Z" fill="#BA9166"/>
</svg>
