<svg width="99" height="99" viewBox="0 0 99 99" fill="none" xmlns="http://www.w3.org/2000/svg">
<circle cx="49.5" cy="49.5" r="48" stroke="#BA9166" stroke-width="3"/>
<circle cx="49.5" cy="49.5" r="40" stroke="#BA9166"/>
<path d="M63.0139 30.8577C59.2201 27.0783 54.2714 25 49.078 25C49.0286 25 48.9786 25 48.9293 25C43.729 25 38.7798 27.0785 34.9861 30.8577C31.1513 34.6779 28.952 39.9053 28.952 45.1998C28.952 50.8614 31.8857 58.0403 37.0007 64.8957C40.6317 69.7622 45.9355 75 49 75C52.0644 75 57.3682 69.7622 60.9994 64.8957C66.1144 58.0404 69.0481 50.8614 69.0481 45.1998C69.0481 39.9054 66.8488 34.678 63.0139 30.8577ZM59.434 63.7278C57.4535 66.3822 55.2513 68.8024 53.2333 70.5427C51.0922 72.389 49.6426 73.0469 49 73.0469C48.3573 73.0469 46.9078 72.3891 44.7667 70.5427C42.7486 68.8024 40.5465 66.3821 38.5659 63.7278C33.6974 57.2026 30.905 50.4494 30.905 45.1998C30.905 40.4209 32.8949 35.6977 36.3645 32.2414C39.7894 28.8295 44.2491 26.953 48.9368 26.953H49.0704C53.7505 26.953 58.2106 28.8297 61.6354 32.2414C65.1049 35.6978 67.0949 40.421 67.0949 45.1998C67.095 50.4495 64.3027 57.2026 59.434 63.7278Z" fill="#BA9166"/>
<path d="M49 28.9062C40.0993 28.9062 32.8581 36.1475 32.8581 45.0481C32.8581 48.5925 33.9853 51.9561 36.118 54.7757C38.1806 57.5025 41.1116 59.5408 44.3713 60.515C44.8879 60.6698 45.432 60.3758 45.5865 59.859C45.741 59.3423 45.4473 58.7981 44.9305 58.6437C42.5101 57.9204 40.3864 56.5684 38.7177 54.8005V35.2808C41.3045 32.5589 44.9574 30.8594 49 30.8594C53.0426 30.8594 56.6955 32.5589 59.2823 35.2808V54.8005C57.6134 56.5685 55.4894 57.9206 53.0688 58.6438C52.552 58.7982 52.2583 59.3423 52.4128 59.8591C52.5393 60.2826 52.9275 60.5563 53.348 60.5563C53.4406 60.5563 53.5348 60.5431 53.628 60.5151C56.8878 59.541 59.819 57.5028 61.8818 54.7759C64.0145 51.9563 65.1419 48.5925 65.1419 45.048C65.1419 36.1475 57.9007 28.9062 49 28.9062ZM36.7645 52.1946C35.5178 50.0678 34.8112 47.6119 34.8112 45.0481C34.8112 42.4314 35.5241 39.9784 36.7645 37.8716V52.1946ZM61.2355 52.1947V37.8716C62.476 39.9784 63.1889 42.4314 63.1889 45.0481C63.1888 47.6119 62.4823 50.0679 61.2355 52.1947Z" fill="#BA9166"/>
<path d="M52.7862 51.707C52.8356 51.7145 52.8851 51.7183 52.9343 51.7183C53.1862 51.7183 53.4306 51.6207 53.6142 51.4427C53.8337 51.2298 53.9408 50.9265 53.9036 50.623L53.7259 49.1704L57.2978 47.1254C57.622 46.9397 57.8119 46.5855 57.787 46.2128C57.7621 45.84 57.5268 45.5143 57.1808 45.3733L56.6227 45.1461L57.4603 43.2903C57.6147 42.9483 57.5595 42.5481 57.3183 42.2608C57.0771 41.9734 56.6927 41.8492 56.3292 41.9422L54.3561 42.4448L54.2293 41.8557C54.147 41.4736 53.8448 41.1774 53.4612 41.1027C53.1692 41.0456 52.8733 41.1256 52.6517 41.309L52.9628 39.582C53.029 39.2144 52.8797 38.8412 52.5782 38.6207C52.2768 38.4002 51.876 38.371 51.5456 38.5454L50.8832 38.8953L49.8802 36.8117C49.7174 36.4737 49.3754 36.2588 49.0002 36.2588C48.625 36.2588 48.283 36.4737 48.1202 36.8117L47.1172 38.8953L46.4549 38.5454C46.1248 38.3712 45.7239 38.4001 45.4222 38.6207C45.1207 38.8412 44.9715 39.2144 45.0377 39.582L45.3487 41.309C45.127 41.1256 44.8314 41.0456 44.5392 41.1027C44.1556 41.1774 43.8535 41.4736 43.7713 41.8557L43.6443 42.4448L41.6712 41.9422C41.3076 41.8493 40.9231 41.9734 40.682 42.2608C40.4408 42.5481 40.3856 42.9483 40.54 43.2903L41.3776 45.1461L40.8195 45.3733C40.4735 45.5142 40.2383 45.84 40.2134 46.2128C40.1885 46.5855 40.3783 46.9396 40.7025 47.1254L44.2745 49.1704L44.0968 50.623C44.0596 50.9264 44.1667 51.2298 44.3861 51.4427C44.6055 51.6556 44.9114 51.7534 45.2141 51.707L48.0234 51.2763V52.8606C48.0234 53.3999 48.4607 53.8372 49 53.8372C49.5392 53.8372 49.9765 53.3999 49.9765 52.8606V51.2763L52.7862 51.707ZM45.8077 47.7978L43.345 46.3878C43.4518 46.2896 43.5366 46.1681 43.5914 46.0307C43.6898 45.7843 43.6838 45.5084 43.5746 45.2666L43.1545 44.3358L44.1441 44.588C44.4008 44.6533 44.6738 44.6116 44.8994 44.4719C44.9667 44.4302 45.0281 44.3809 45.0826 44.3253L46.2997 46.1172C46.5589 46.4985 47.0496 46.6471 47.4764 46.4727C47.9035 46.2984 48.1504 45.8492 48.0686 45.3954L47.3092 41.1772C47.4899 41.2246 47.6822 41.2197 47.8626 41.1603C48.1146 41.0772 48.3221 40.8953 48.4372 40.6563L49 39.4871L49.5628 40.6562C49.6779 40.8952 49.8853 41.0772 50.1374 41.1602C50.3179 41.2197 50.5102 41.2245 50.6909 41.1771L49.9313 45.3953C49.8496 45.8491 50.0965 46.2983 50.5234 46.4726C50.9506 46.647 51.4412 46.4985 51.7003 46.1171L52.9174 44.3252C52.9719 44.3808 53.0333 44.4301 53.1005 44.4718C53.3262 44.6115 53.5991 44.6534 53.8558 44.5879L54.8455 44.3357L54.4254 45.2665C54.3162 45.5084 54.3101 45.7842 54.4086 46.0306C54.4635 46.168 54.5482 46.2895 54.655 46.3877L52.1923 47.7977C51.8513 47.993 51.6604 48.3736 51.7082 48.7639L51.8082 49.5811L49.1479 49.1731C49.0989 49.1656 49.0494 49.1619 48.9999 49.1619C48.9504 49.1619 48.9009 49.1656 48.8518 49.1731L46.1916 49.5811L46.2916 48.7639C46.3395 48.3738 46.1487 47.9931 45.8077 47.7978Z" fill="#BA9166"/>
<path d="M49 59.2369H48.9993C48.4601 59.2369 48.0232 59.6742 48.0232 60.2135C48.0232 60.7528 48.4607 61.1901 49 61.1901C49.5394 61.1901 49.9766 60.7528 49.9766 60.2135C49.9766 59.6742 49.5394 59.2369 49 59.2369Z" fill="#BA9166"/>
</svg>
