<svg width="50" height="50" viewBox="0 0 50 50" fill="none" xmlns="http://www.w3.org/2000/svg">
<g clip-path="url(#clip0)">
<path d="M27.7617 25.002L49.4273 3.33619C50.1901 2.5734 50.1901 1.33668 49.4273 0.573986C48.6646 -0.188708 47.4278 -0.188806 46.6651 0.573986L24.9994 22.2398L3.33369 0.573986C2.57089 -0.188806 1.33418 -0.188806 0.571483 0.573986C-0.191211 1.33678 -0.191308 2.57349 0.571483 3.33619L22.2372 25.0019L0.571483 46.6676C-0.191308 47.4304 -0.191308 48.6672 0.571483 49.4298C0.95283 49.8112 1.45273 50.0018 1.95263 50.0018C2.45253 50.0018 2.95234 49.8112 3.33378 49.4298L24.9994 27.7642L46.665 49.4298C47.0464 49.8112 47.5463 50.0018 48.0462 50.0018C48.5461 50.0018 49.0459 49.8112 49.4273 49.4298C50.1901 48.6671 50.1901 47.4303 49.4273 46.6676L27.7617 25.002Z" fill="black"/>
</g>
<defs>
<clipPath id="clip0">
<rect width="50" height="50" fill="white"/>
</clipPath>
</defs>
</svg>
