<svg width="20" height="20" viewBox="0 0 20 20" fill="none" xmlns="http://www.w3.org/2000/svg">
<path d="M10.4128 11.3301C9.66558 11.3266 8.92326 11.2096 8.21127 10.9829C7.07365 10.6024 6.22869 9.63927 5.99933 8.46181C5.74837 7.25298 6.20573 5.97481 7.2539 4.95514C7.36637 4.84561 7.48323 4.74069 7.6045 4.64038C8.67771 3.74189 10.1246 3.42965 11.4728 3.80558C12.7781 4.22218 13.68 5.41503 13.7251 6.78441C13.774 7.57266 13.5171 8.3494 13.0078 8.95304C12.615 9.4478 11.9786 9.6815 11.359 9.55851C11.1056 9.50593 10.8845 9.35246 10.7467 9.13344C10.623 8.9207 10.5912 8.66675 10.6588 8.43011C10.9503 7.32824 11.2467 5.65374 11.2496 5.63678C11.2703 5.51947 11.352 5.42213 11.4639 5.38141C11.5759 5.34069 11.701 5.36278 11.7923 5.43936C11.8835 5.51594 11.927 5.63538 11.9063 5.75268C11.8939 5.82234 11.6021 7.47174 11.3034 8.60051C11.2821 8.66306 11.2874 8.73163 11.3182 8.79011C11.3643 8.85389 11.4338 8.89675 11.5115 8.90924C11.8908 8.97255 12.274 8.82038 12.5065 8.51408C12.902 8.04096 13.1001 7.43376 13.0598 6.81844C13.0272 5.72844 12.3125 4.7768 11.2747 4.44178C10.1419 4.13021 8.92838 4.39638 8.03 5.15344C7.9229 5.24234 7.81873 5.33541 7.7188 5.43274C7.2006 5.93681 6.3731 6.98274 6.65193 8.32608C6.83928 9.26457 7.50956 10.0337 8.41363 10.3476C9.97696 10.8463 12.2234 10.9063 13.407 9.43464C13.5232 9.2946 13.7304 9.27374 13.8723 9.38778C14.0141 9.50183 14.0383 9.70861 13.9265 9.85228C13.0513 10.9407 11.7194 11.3301 10.4128 11.3301Z" fill="#BA9166"/>
<path d="M9.27166 9.60151C8.91932 9.60756 8.57565 9.49202 8.29853 9.27434C7.65873 8.76231 7.64113 7.87281 7.8205 7.26704C7.8809 7.0653 7.96201 6.87035 8.06253 6.68531C8.31264 6.18068 8.71255 5.76565 9.20756 5.497C9.82401 5.17714 10.5772 5.29844 11.062 5.79567C11.3026 6.05928 11.4838 6.37143 11.5934 6.71104C11.6514 6.88338 11.5606 7.07044 11.3893 7.13145C11.218 7.19246 11.0294 7.10491 10.9654 6.93467C10.8864 6.68377 10.755 6.45249 10.58 6.25611C10.2974 5.96703 9.8569 5.90125 9.5021 6.09514C9.13087 6.3045 8.83253 6.62236 8.6471 7.00611C8.56917 7.14988 8.50623 7.30129 8.45926 7.45794C8.32973 7.89611 8.3582 8.46794 8.71563 8.75417C9.1064 9.06797 9.76563 8.93531 10.1365 8.61534C10.4129 8.3665 10.6504 8.07758 10.8411 7.75824C10.9028 7.65479 11.0156 7.5927 11.136 7.59584C11.2565 7.59899 11.3658 7.66687 11.4221 7.77341C11.4783 7.87994 11.4727 8.00854 11.4074 8.10977C11.1816 8.48606 10.9005 8.82623 10.5734 9.11887C10.2089 9.42641 9.74854 9.59711 9.27166 9.60151Z" fill="#BA9166"/>
<path d="M19 19.9999H1C0.447967 19.9993 0.000606237 19.5519 0 18.9999V6.66655C5.24e-06 6.53729 0.0747389 6.41969 0.191761 6.36479C0.308783 6.30989 0.446994 6.3276 0.5464 6.41022L8.72543 13.2077C9.46549 13.8189 10.5352 13.8187 11.2751 13.2073L19.4533 6.41022C19.5527 6.32743 19.6911 6.30962 19.8082 6.36454C19.9253 6.41946 20.0001 6.53719 20 6.66655V18.9999C19.9994 19.5519 19.552 19.9993 19 19.9999ZM0.666667 7.37699V18.9999C0.666905 19.1839 0.816004 19.333 1 19.3332H19C19.184 19.3331 19.3332 19.1839 19.3333 18.9999V7.37699L11.7007 13.7203C10.7138 14.5359 9.28692 14.5361 8.2998 13.7208L0.666667 7.37699Z" fill="#BA9166"/>
<path d="M0.33366 6.99986C0.18847 6.99999 0.0598946 6.90613 0.0157816 6.7678C-0.0283314 6.62947 0.0221656 6.4785 0.140626 6.39456L3.14063 4.26789C3.29083 4.16379 3.49684 4.20004 3.60249 4.34915C3.70814 4.49826 3.67403 4.70463 3.52603 4.81182L0.526026 6.93849C0.469852 6.97846 0.402605 6.99991 0.33366 6.99986Z" fill="#BA9166"/>
<path d="M19.6664 6.99986C19.5974 6.99991 19.5302 6.97846 19.474 6.93849L16.474 4.81182C16.326 4.70463 16.2919 4.49826 16.3975 4.34915C16.5032 4.20004 16.7092 4.16379 16.8594 4.26789L19.8594 6.39456C19.9778 6.4785 20.0283 6.62947 19.9842 6.7678C19.9401 6.90613 19.8115 6.99999 19.6664 6.99986Z" fill="#BA9166"/>
<path d="M13.0798 2.33328C13.0108 2.33331 12.9435 2.31187 12.8872 2.27191L11.2939 1.14191C10.5543 0.516907 9.47348 0.510396 8.72638 1.12644L7.11304 2.27194C7.01588 2.34085 6.88934 2.35268 6.78108 2.30299C6.67282 2.25329 6.5993 2.14962 6.58821 2.03102C6.57712 1.91242 6.63015 1.79692 6.72731 1.72801L8.32064 0.598012C9.30518 -0.207 10.7223 -0.200597 11.6996 0.613278L13.2729 1.72788C13.3915 1.81181 13.442 1.96285 13.3979 2.10124C13.3537 2.23963 13.2251 2.3335 13.0798 2.33328Z" fill="#BA9166"/>
<path d="M0.54998 19.8201C0.409503 19.8203 0.284026 19.7323 0.236237 19.6002C0.188448 19.4681 0.228606 19.3202 0.336647 19.2304L7.94331 12.9105C8.03472 12.8327 8.16084 12.8101 8.27355 12.8513C8.38625 12.8924 8.46815 12.991 8.48799 13.1093C8.50783 13.2276 8.46254 13.3475 8.36941 13.4231L0.762747 19.7431C0.703025 19.7929 0.627732 19.8202 0.54998 19.8201Z" fill="#BA9166"/>
<path d="M19.4495 19.8201C19.3718 19.8202 19.2966 19.7929 19.2369 19.7431L11.6303 13.4231C11.5372 13.3475 11.4919 13.2276 11.5117 13.1093C11.5315 12.991 11.6134 12.8924 11.7262 12.8513C11.8389 12.8101 11.965 12.8327 12.0564 12.9105L19.6628 19.2304C19.7709 19.3202 19.811 19.4681 19.7633 19.6002C19.7155 19.7323 19.59 19.8203 19.4495 19.8201V19.8201Z" fill="#BA9166"/>
<path d="M16.6666 9.49339C16.4825 9.49339 16.3333 9.34415 16.3333 9.16006V2.33599C16.3323 2.34299 16.319 2.33356 16.2966 2.33339H3.7033C3.68857 2.33249 3.67411 2.33767 3.6633 2.34772L3.66664 9.16006C3.66664 9.34415 3.5174 9.49339 3.3333 9.49339C3.14921 9.49339 2.99997 9.34415 2.99997 9.16006V2.33339C3.01072 1.95536 3.32523 1.65724 3.7033 1.66672H16.2966C16.6747 1.65728 16.9892 1.95537 17 2.33339V9.16006C17 9.34415 16.8507 9.49339 16.6666 9.49339Z" fill="#BA9166"/>
</svg>
