<svg width="50" height="50" viewBox="0 0 50 50" fill="none" xmlns="http://www.w3.org/2000/svg">
<path d="M39.1667 9.16661H40.8334C41.2936 9.16661 41.6667 8.79351 41.6667 8.33327C41.6667 7.87304 41.2936 7.49994 40.8334 7.49994H39.1667C38.7065 7.49994 38.3334 7.87304 38.3334 8.33327C38.3334 8.79351 38.7065 9.16661 39.1667 9.16661Z" fill="black"/>
<path d="M44.1666 9.16661H45.8333C46.2935 9.16661 46.6666 8.79351 46.6666 8.33327C46.6666 7.87304 46.2935 7.49994 45.8333 7.49994H44.1666C43.7063 7.49994 43.3333 7.87304 43.3333 8.33327C43.3333 8.79351 43.7063 9.16661 44.1666 9.16661Z" fill="black"/>
<path d="M5 49.1667C5 49.6269 5.3731 50 5.83333 50H48.3333C49.2538 50 50 49.2538 50 48.3333V7.5C50 5.65905 48.5076 4.16667 46.6667 4.16667H44.6383L42.8667 1.21333C42.4124 0.462667 41.5999 0.00288118 40.7225 0H39.2775C38.3998 0.00273139 37.5871 0.462938 37.1333 1.21417L35.3617 4.16667H33.805L32.0333 1.21333C31.5791 0.462667 30.7666 0.00288118 29.8892 0H28.4442C27.5665 0.00273139 26.7538 0.462938 26.3 1.21417L24.5283 4.16667H22.5C20.659 4.16667 19.1667 5.65905 19.1667 7.5V21.2333C19.1667 21.6936 19.5398 22.0667 20 22.0667C20.4602 22.0667 20.8333 21.6936 20.8333 21.2333V12.5H24.1667V19.8667C24.1667 20.3269 24.5398 20.7 25 20.7C25.4602 20.7 25.8333 20.3269 25.8333 19.8667V12.5H43.3333V48.3333H37.4458C37.6404 47.8761 37.7019 47.3732 37.6233 46.8825L36.3867 38.785C36.2707 38.138 35.9312 37.5523 35.4275 37.13L31.3017 33.7608L32.5217 29.1392L34.21 30.8617C34.7267 31.4036 35.4518 31.6969 36.2 31.6667H39.1667C40.5442 31.6589 41.6589 30.5442 41.6667 29.1667C41.6667 27.786 40.5474 26.6667 39.1667 26.6667H37.4L34.55 23.4517C36.6645 22.1082 37.3109 19.3172 36.0022 17.181C34.6936 15.0448 31.9136 14.3527 29.7562 15.6261C27.5988 16.8996 26.8613 19.6678 28.0992 21.8458L22.4467 22.8642C21.6655 23.008 20.9875 23.4888 20.5933 24.1783L18.1075 28.5308C17.812 29.0576 17.7034 29.6687 17.7992 30.265L16.7383 33.89C13.6166 33.3912 10.603 35.2631 9.66667 38.2825L7.60417 44.815C7.23841 45.976 7.87164 47.2158 9.02667 47.6L11.2158 48.3333H5.83333C5.3731 48.3333 5 48.7064 5 49.1667ZM18.9925 32.1225C19.0325 32.1483 19.0667 32.1817 19.1083 32.2058C19.3987 32.3665 19.7163 32.4721 20.045 32.5175L19.3508 34.8975C19.0305 34.6861 18.6929 34.5022 18.3417 34.3475L18.9925 32.1225ZM21.8858 32.1567C22.2617 31.92 22.5725 31.5931 22.79 31.2058L24.6558 27.95L25.5683 27.7833L19.9442 46.525C19.7651 47.1213 19.8019 47.7616 20.0483 48.3333H18.1825C19.0954 47.0887 19.1831 45.4211 18.4058 44.0875L21.8858 32.1567ZM17.2667 46.0275C17.267 46.9602 16.7054 47.8012 15.8438 48.1584C14.9822 48.5156 13.9903 48.3185 13.3307 47.6591C12.671 46.9997 12.4736 46.0079 12.8304 45.1461C13.1873 44.2844 14.0281 43.7225 14.9608 43.7225C16.2334 43.7239 17.2648 44.7549 17.2667 46.0275ZM25.0042 48.3333C25.0429 48.2486 25.0768 48.1618 25.1058 48.0733L28.1058 38.1183L31.2008 40.6508L32.2942 47.7192C32.3295 47.9303 32.39 48.1365 32.4742 48.3333H25.0042ZM38.5617 2.07167C38.7135 1.82122 38.9846 1.66779 39.2775 1.66667H40.7225C41.0154 1.66779 41.2865 1.82122 41.4383 2.07167L42.695 4.16667H37.305L38.5617 2.07167ZM27.7283 2.07167C27.8801 1.82122 28.1513 1.66779 28.4442 1.66667H29.8892C30.182 1.66779 30.4532 1.82122 30.605 2.07167L31.8617 4.16667H26.4717L27.7283 2.07167ZM20.8333 10.8333V7.5C20.8333 6.57952 21.5795 5.83333 22.5 5.83333H46.6667C47.5871 5.83333 48.3333 6.57952 48.3333 7.5V10.8333H20.8333ZM45 12.5H48.3333V48.3333H45V12.5ZM32.0833 16.6667C33.5621 16.6719 34.803 17.783 34.9708 19.2523C35.1387 20.7216 34.1804 22.0839 32.7408 22.4225C32.5256 22.4747 32.3048 22.5007 32.0833 22.5C30.4725 22.5 29.1667 21.1942 29.1667 19.5833C29.1667 17.9725 30.4725 16.6667 32.0833 16.6667ZM19.5567 29.355L22.0408 25.0042C22.1915 24.7414 22.4504 24.5585 22.7483 24.5042L29.4358 23.3C30.2057 23.8592 31.1318 24.1624 32.0833 24.1667C32.353 24.1649 32.6219 24.1384 32.8867 24.0875L36.4017 28.0525C36.5597 28.231 36.7866 28.3332 37.025 28.3333H39.1667C39.6269 28.3333 40 28.7064 40 29.1667C40 29.6269 39.6269 30 39.1667 30H36.2C35.9114 30.0239 35.6267 29.9204 35.4208 29.7167L32.6875 26.925C32.4778 26.7105 32.169 26.6252 31.8789 26.7018C31.5889 26.7784 31.3623 27.0049 31.2858 27.295L29.5525 33.8542C29.4693 34.1698 29.5781 34.505 29.8308 34.7117L34.3658 38.4167C34.5627 38.5808 34.696 38.8087 34.7425 39.0608L35.9775 47.1442C36.0663 47.7066 35.6824 48.2345 35.12 48.3233C34.5576 48.4122 34.0297 48.0282 33.9408 47.4658L32.7983 40.0833C32.7668 39.879 32.6605 39.6937 32.5 39.5633L28.1917 36.0383C27.9763 35.8623 27.6873 35.8054 27.4212 35.8865C27.1552 35.9677 26.9471 36.1762 26.8667 36.4425L23.51 47.5942C23.4406 47.8616 23.263 48.088 23.0198 48.2189C22.7765 48.3498 22.4897 48.3735 22.2283 48.2842C21.9672 48.2067 21.7478 48.0283 21.6186 47.7885C21.4894 47.5487 21.4611 47.2674 21.54 47.0067L27.5567 26.9567C27.6272 26.6802 27.5554 26.3867 27.365 26.1741C27.1747 25.9615 26.8909 25.8578 26.6083 25.8975L23.975 26.3808C23.7339 26.4251 23.5245 26.5732 23.4025 26.7858L21.3425 30.38C21.2086 30.6201 20.9832 30.7956 20.7176 30.8666C20.4521 30.9376 20.1691 30.8979 19.9333 30.7567C19.4471 30.4699 19.2797 29.8468 19.5567 29.355ZM9.1925 45.3183L11.2567 38.7867C12.0206 36.3226 14.6247 34.9316 17.0975 35.6667C17.7387 35.8542 18.3369 36.1656 18.8583 36.5833L17.0833 42.6808C16.4511 42.2744 15.7157 42.0576 14.9642 42.0558C12.7716 42.0581 10.9948 43.835 10.9925 46.0275C10.9987 46.1911 11.0151 46.3542 11.0417 46.5158L9.55333 46.0158C9.26256 45.9211 9.10181 45.6104 9.1925 45.3183Z" fill="black"/>
<path d="M0.833333 50H2.5C2.96024 50 3.33333 49.6269 3.33333 49.1666C3.33333 48.7064 2.96024 48.3333 2.5 48.3333H0.833333C0.373096 48.3333 0 48.7064 0 49.1666C0 49.6269 0.373096 50 0.833333 50Z" fill="black"/>
<path d="M16.6667 24.1666C17.127 24.1666 17.5001 23.7935 17.5001 23.3333C17.5001 22.8731 17.127 22.5 16.6667 22.5H5.00008C4.53984 22.5 4.16675 22.8731 4.16675 23.3333C4.16675 23.7935 4.53984 24.1666 5.00008 24.1666H16.6667Z" fill="black"/>
<path d="M2.5 27.5C2.5 27.9602 2.8731 28.3333 3.33333 28.3333H15C15.4602 28.3333 15.8333 27.9602 15.8333 27.5C15.8333 27.0398 15.4602 26.6667 15 26.6667H3.33333C2.8731 26.6667 2.5 27.0398 2.5 27.5Z" fill="black"/>
<path d="M0.833333 32.5H12.5C12.9602 32.5 13.3333 32.1269 13.3333 31.6666C13.3333 31.2064 12.9602 30.8333 12.5 30.8333H0.833333C0.373096 30.8333 0 31.2064 0 31.6666C0 32.1269 0.373096 32.5 0.833333 32.5Z" fill="black"/>
</svg>
