<svg width="42" height="50" viewBox="0 0 42 50" fill="none" xmlns="http://www.w3.org/2000/svg">
<path d="M35.0138 5.8577C31.22 2.07832 26.2714 0 21.0779 0C21.0285 0 20.9785 0 20.9292 0C15.7289 0 10.7797 2.07851 6.98607 5.8577C3.15122 9.67791 0.951904 14.9053 0.951904 20.1998C0.951904 25.8614 3.88559 33.0403 9.00062 39.8957C12.6317 44.7622 17.9355 50 20.9999 50C24.0644 50 29.3682 44.7622 32.9993 39.8957C38.1143 33.0404 41.048 25.8614 41.048 20.1998C41.048 14.9054 38.8487 9.67801 35.0138 5.8577ZM31.434 38.7278C29.4534 41.3822 27.2513 43.8024 25.2332 45.5427C23.0921 47.389 21.6426 48.0469 20.9999 48.0469C20.3572 48.0469 18.9077 47.3891 16.7666 45.5427C14.7486 43.8024 12.5464 41.3821 10.5659 38.7278C5.6973 32.2026 2.90493 25.4494 2.90493 20.1998C2.90493 15.4209 4.89487 10.6977 8.36439 7.24139C11.7894 3.82948 16.249 1.95302 20.9367 1.95302H21.0703C25.7504 1.95302 30.2105 3.82968 33.6353 7.24139C37.1049 10.6978 39.0948 15.421 39.0948 20.1998C39.0949 25.4495 36.3026 32.2026 31.434 38.7278Z" fill="black"/>
<path d="M21 3.90625C12.0994 3.90625 4.85815 11.1475 4.85815 20.0481C4.85815 23.5925 5.9854 26.9561 8.11802 29.7757C10.1806 32.5025 13.1117 34.5408 16.3713 35.515C16.8879 35.6698 17.4321 35.3758 17.5866 34.859C17.7411 34.3423 17.4473 33.7981 16.9305 33.6437C14.5102 32.9204 12.3865 31.5684 10.7177 29.8005V10.2808C13.3045 7.55889 16.9575 5.85937 21 5.85937C25.0426 5.85937 28.6956 7.55889 31.2824 10.2808V29.8005C29.6134 31.5685 27.4895 32.9206 25.0689 33.6438C24.5521 33.7982 24.2584 34.3423 24.4128 34.8591C24.5394 35.2826 24.9276 35.5563 25.3481 35.5563C25.4407 35.5563 25.5348 35.5431 25.6281 35.5151C28.8878 34.541 31.8191 32.5028 33.8819 29.7759C36.0146 26.9563 37.1419 23.5925 37.1419 20.048C37.1419 11.1475 29.9007 3.90625 21 3.90625ZM8.7646 27.1946C7.51782 25.0678 6.81128 22.6119 6.81128 20.0481C6.81128 17.4314 7.52417 14.9784 8.7646 12.8716V27.1946ZM33.2356 27.1947V12.8716C34.476 14.9784 35.1889 17.4314 35.1889 20.0481C35.1888 22.6119 34.4824 25.0679 33.2356 27.1947Z" fill="black"/>
<path d="M24.7862 26.707C24.8356 26.7145 24.8851 26.7182 24.9343 26.7182C25.1862 26.7182 25.4306 26.6207 25.6142 26.4426C25.8337 26.2298 25.9408 25.9264 25.9036 25.623L25.7259 24.1704L29.2978 22.1254C29.622 21.9397 29.8119 21.5855 29.787 21.2128C29.7621 20.84 29.5268 20.5142 29.1808 20.3733L28.6227 20.1461L29.4603 18.2903C29.6147 17.9483 29.5595 17.5481 29.3183 17.2608C29.0771 16.9734 28.6927 16.8492 28.3292 16.9422L26.3561 17.4448L26.2293 16.8556C26.147 16.4736 25.8448 16.1774 25.4612 16.1027C25.1692 16.0456 24.8733 16.1256 24.6517 16.309L24.9628 14.582C25.029 14.2143 24.8797 13.8412 24.5782 13.6207C24.2768 13.4002 23.876 13.371 23.5456 13.5454L22.8832 13.8953L21.8802 11.8117C21.7174 11.4737 21.3754 11.2588 21.0002 11.2588C20.625 11.2588 20.283 11.4737 20.1202 11.8117L19.1172 13.8953L18.4549 13.5454C18.1248 13.3712 17.7239 13.4001 17.4222 13.6207C17.1207 13.8412 16.9715 14.2143 17.0377 14.582L17.3487 16.309C17.127 16.1256 16.8314 16.0456 16.5392 16.1027C16.1556 16.1774 15.8535 16.4736 15.7713 16.8556L15.6443 17.4448L13.6712 16.9422C13.3076 16.8493 12.9231 16.9734 12.682 17.2608C12.4408 17.5481 12.3856 17.9483 12.54 18.2903L13.3776 20.1461L12.8195 20.3733C12.4735 20.5141 12.2383 20.84 12.2134 21.2128C12.1885 21.5855 12.3783 21.9396 12.7025 22.1254L16.2745 24.1704L16.0968 25.623C16.0596 25.9263 16.1667 26.2298 16.3861 26.4426C16.6055 26.6555 16.9114 26.7534 17.2141 26.707L20.0234 26.2762V27.8606C20.0234 28.3999 20.4607 28.8372 21 28.8372C21.5392 28.8372 21.9765 28.3999 21.9765 27.8606V26.2762L24.7862 26.707ZM17.8077 22.7977L15.345 21.3878C15.4518 21.2896 15.5366 21.168 15.5914 21.0306C15.6898 20.7842 15.6838 20.5084 15.5746 20.2666L15.1545 19.3358L16.1441 19.588C16.4008 19.6533 16.6738 19.6116 16.8994 19.4718C16.9667 19.4301 17.0281 19.3808 17.0826 19.3253L18.2997 21.1172C18.5589 21.4985 19.0496 21.647 19.4764 21.4726C19.9035 21.2984 20.1504 20.8492 20.0686 20.3954L19.3092 16.1772C19.4899 16.2246 19.6822 16.2197 19.8626 16.1602C20.1146 16.0772 20.3221 15.8953 20.4372 15.6563L21 14.4871L21.5628 15.6562C21.6779 15.8952 21.8853 16.0772 22.1374 16.1601C22.3179 16.2197 22.5102 16.2245 22.6909 16.1771L21.9313 20.3953C21.8496 20.8491 22.0965 21.2983 22.5234 21.4725C22.9506 21.6469 23.4412 21.4985 23.7003 21.1171L24.9174 19.3252C24.9719 19.3807 25.0333 19.43 25.1005 19.4717C25.3262 19.6115 25.5991 19.6534 25.8558 19.5879L26.8455 19.3357L26.4254 20.2665C26.3162 20.5084 26.3101 20.7841 26.4086 21.0305C26.4635 21.1679 26.5482 21.2895 26.655 21.3877L24.1923 22.7976C23.8513 22.9929 23.6604 23.3736 23.7082 23.7638L23.8082 24.581L21.1479 24.1731C21.0989 24.1656 21.0494 24.1619 20.9999 24.1619C20.9504 24.1619 20.9009 24.1656 20.8518 24.1731L18.1916 24.581L18.2916 23.7638C18.3395 23.3738 18.1487 22.993 17.8077 22.7977Z" fill="black"/>
<path d="M21.0001 34.237H20.9994C20.4601 34.237 20.0232 34.6743 20.0232 35.2135C20.0232 35.7528 20.4607 36.1901 21.0001 36.1901C21.5394 36.1901 21.9766 35.7528 21.9766 35.2135C21.9766 34.6743 21.5394 34.237 21.0001 34.237Z" fill="black"/>
</svg>
