<svg width="99" height="99" viewBox="0 0 99 99" fill="none" xmlns="http://www.w3.org/2000/svg">
<circle cx="49.5" cy="49.5" r="48" stroke="#BA9166" stroke-width="3"/>
<circle cx="49.5" cy="49.5" r="40" stroke="#BA9166"/>
<path d="M63.1667 34.1667H64.8333C65.2936 34.1667 65.6667 33.7936 65.6667 33.3333C65.6667 32.8731 65.2936 32.5 64.8333 32.5H63.1667C62.7064 32.5 62.3333 32.8731 62.3333 33.3333C62.3333 33.7936 62.7064 34.1667 63.1667 34.1667Z" fill="#BA9166"/>
<path d="M68.1666 34.1667H69.8333C70.2936 34.1667 70.6667 33.7936 70.6667 33.3333C70.6667 32.8731 70.2936 32.5 69.8333 32.5H68.1666C67.7064 32.5 67.3333 32.8731 67.3333 33.3333C67.3333 33.7936 67.7064 34.1667 68.1666 34.1667Z" fill="#BA9166"/>
<path d="M29 74.1667C29 74.6269 29.3731 75 29.8334 75H72.3334C73.2538 75 74 74.2538 74 73.3333V32.5C74 30.6591 72.5076 29.1667 70.6667 29.1667H68.6384L66.8667 26.2133C66.4124 25.4627 65.5999 25.0029 64.7225 25H63.2775C62.3999 25.0027 61.5872 25.4629 61.1334 26.2142L59.3617 29.1667H57.805L56.0334 26.2133C55.5791 25.4627 54.7666 25.0029 53.8892 25H52.4442C51.5665 25.0027 50.7538 25.4629 50.3 26.2142L48.5284 29.1667H46.5C44.6591 29.1667 43.1667 30.6591 43.1667 32.5V46.2333C43.1667 46.6936 43.5398 47.0667 44 47.0667C44.4603 47.0667 44.8334 46.6936 44.8334 46.2333V37.5H48.1667V44.8667C48.1667 45.3269 48.5398 45.7 49 45.7C49.4603 45.7 49.8334 45.3269 49.8334 44.8667V37.5H67.3334V73.3333H61.4459C61.6404 72.8761 61.702 72.3732 61.6234 71.8825L60.3867 63.785C60.2707 63.138 59.9312 62.5523 59.4275 62.13L55.3017 58.7608L56.5217 54.1392L58.21 55.8617C58.7268 56.4036 59.4518 56.6969 60.2 56.6667H63.1667C64.5442 56.6589 65.659 55.5442 65.6667 54.1667C65.6667 52.786 64.5474 51.6667 63.1667 51.6667H61.4L58.55 48.4517C60.6645 47.1082 61.3109 44.3172 60.0023 42.181C58.6936 40.0448 55.9136 39.3527 53.7562 40.6261C51.5988 41.8996 50.8613 44.6678 52.0992 46.8458L46.4467 47.8642C45.6656 48.008 44.9875 48.4888 44.5934 49.1783L42.1075 53.5308C41.8121 54.0576 41.7034 54.6687 41.7992 55.265L40.7384 58.89C37.6167 58.3912 34.6031 60.2631 33.6667 63.2825L31.6042 69.815C31.2384 70.976 31.8717 72.2158 33.0267 72.6L35.2159 73.3333H29.8334C29.3731 73.3333 29 73.7064 29 74.1667ZM42.9925 57.1225C43.0325 57.1483 43.0667 57.1817 43.1084 57.2058C43.3987 57.3665 43.7163 57.4721 44.045 57.5175L43.3509 59.8975C43.0305 59.6861 42.6929 59.5022 42.3417 59.3475L42.9925 57.1225ZM45.8859 57.1567C46.2617 56.92 46.5725 56.5931 46.79 56.2058L48.6559 52.95L49.5684 52.7833L43.9442 71.525C43.7651 72.1213 43.802 72.7616 44.0484 73.3333H42.1825C43.0954 72.0887 43.1832 70.4211 42.4059 69.0875L45.8859 57.1567ZM41.2667 71.0275C41.267 71.9602 40.7055 72.8012 39.8438 73.1584C38.9822 73.5156 37.9903 73.3185 37.3307 72.6591C36.6711 71.9997 36.4736 71.0079 36.8305 70.1461C37.1873 69.2844 38.0282 68.7225 38.9609 68.7225C40.2334 68.7239 41.2649 69.7549 41.2667 71.0275ZM49.0042 73.3333C49.0429 73.2486 49.0768 73.1618 49.1059 73.0733L52.1059 63.1183L55.2009 65.6508L56.2942 72.7192C56.3296 72.9303 56.39 73.1365 56.4742 73.3333H49.0042ZM62.5617 27.0717C62.7135 26.8212 62.9847 26.6678 63.2775 26.6667H64.7225C65.0154 26.6678 65.2866 26.8212 65.4384 27.0717L66.695 29.1667H61.305L62.5617 27.0717ZM51.7284 27.0717C51.8802 26.8212 52.1513 26.6678 52.4442 26.6667H53.8892C54.1821 26.6678 54.4532 26.8212 54.605 27.0717L55.8617 29.1667H50.4717L51.7284 27.0717ZM44.8334 35.8333V32.5C44.8334 31.5795 45.5796 30.8333 46.5 30.8333H70.6667C71.5872 30.8333 72.3334 31.5795 72.3334 32.5V35.8333H44.8334ZM69 37.5H72.3334V73.3333H69V37.5ZM56.0834 41.6667C57.5622 41.6719 58.803 42.783 58.9709 44.2523C59.1387 45.7216 58.1804 47.0839 56.7409 47.4225C56.5256 47.4747 56.3049 47.5007 56.0834 47.5C54.4725 47.5 53.1667 46.1942 53.1667 44.5833C53.1667 42.9725 54.4725 41.6667 56.0834 41.6667ZM43.5567 54.355L46.0409 50.0042C46.1916 49.7414 46.4504 49.5585 46.7484 49.5042L53.4359 48.3C54.2057 48.8592 55.1318 49.1624 56.0834 49.1667C56.353 49.1649 56.6219 49.1384 56.8867 49.0875L60.4017 53.0525C60.5597 53.231 60.7866 53.3332 61.025 53.3333H63.1667C63.6269 53.3333 64 53.7064 64 54.1667C64 54.6269 63.6269 55 63.1667 55H60.2C59.9114 55.0239 59.6268 54.9204 59.4209 54.7167L56.6875 51.925C56.4778 51.7105 56.169 51.6252 55.8789 51.7018C55.5889 51.7784 55.3624 52.0049 55.2859 52.295L53.5525 58.8542C53.4693 59.1698 53.5781 59.505 53.8309 59.7117L58.3659 63.4167C58.5627 63.5808 58.696 63.8087 58.7425 64.0608L59.9775 72.1442C60.0664 72.7066 59.6824 73.2345 59.12 73.3233C58.5576 73.4122 58.0297 73.0282 57.9409 72.4658L56.7984 65.0833C56.7669 64.879 56.6605 64.6937 56.5 64.5633L52.1917 61.0383C51.9763 60.8623 51.6873 60.8054 51.4213 60.8865C51.1552 60.9677 50.9472 61.1762 50.8667 61.4425L47.51 72.5942C47.4407 72.8616 47.263 73.088 47.0198 73.2189C46.7766 73.3498 46.4898 73.3735 46.2284 73.2842C45.9672 73.2067 45.7478 73.0283 45.6186 72.7885C45.4894 72.5487 45.4611 72.2674 45.54 72.0067L51.5567 51.9567C51.6273 51.6802 51.5554 51.3867 51.3651 51.1741C51.1747 50.9615 50.8909 50.8578 50.6084 50.8975L47.975 51.3808C47.7339 51.4251 47.5245 51.5732 47.4025 51.7858L45.3425 55.38C45.2086 55.6201 44.9832 55.7956 44.7177 55.8666C44.4521 55.9376 44.1692 55.8979 43.9334 55.7567C43.4471 55.4699 43.2797 54.8468 43.5567 54.355ZM33.1925 70.3183L35.2567 63.7867C36.0206 61.3226 38.6247 59.9316 41.0975 60.6667C41.7387 60.8542 42.337 61.1656 42.8584 61.5833L41.0834 67.6808C40.4511 67.2744 39.7158 67.0576 38.9642 67.0558C36.7717 67.0581 34.9948 68.835 34.9925 71.0275C34.9987 71.1911 35.0151 71.3542 35.0417 71.5158L33.5534 71.0158C33.2626 70.9211 33.1018 70.6104 33.1925 70.3183Z" fill="#BA9166"/>
<path d="M24.8333 75H26.5C26.9602 75 27.3333 74.6269 27.3333 74.1667C27.3333 73.7065 26.9602 73.3334 26.5 73.3334H24.8333C24.3731 73.3334 24 73.7065 24 74.1667C24 74.6269 24.3731 75 24.8333 75Z" fill="#BA9166"/>
<path d="M40.6667 49.1667C41.1269 49.1667 41.5 48.7936 41.5 48.3333C41.5 47.8731 41.1269 47.5 40.6667 47.5H29C28.5398 47.5 28.1667 47.8731 28.1667 48.3333C28.1667 48.7936 28.5398 49.1667 29 49.1667H40.6667Z" fill="#BA9166"/>
<path d="M26.5 52.5C26.5 52.9602 26.8731 53.3333 27.3333 53.3333H39C39.4602 53.3333 39.8333 52.9602 39.8333 52.5C39.8333 52.0397 39.4602 51.6666 39 51.6666H27.3333C26.8731 51.6666 26.5 52.0397 26.5 52.5Z" fill="#BA9166"/>
<path d="M24.8333 57.4999H36.5C36.9602 57.4999 37.3333 57.1268 37.3333 56.6666C37.3333 56.2063 36.9602 55.8333 36.5 55.8333H24.8333C24.3731 55.8333 24 56.2063 24 56.6666C24 57.1268 24.3731 57.4999 24.8333 57.4999Z" fill="#BA9166"/>
</svg>
