<svg width="99" height="99" viewBox="0 0 99 99" fill="none" xmlns="http://www.w3.org/2000/svg">
<circle cx="49.5" cy="49.5" r="48" stroke="#BA9166" stroke-width="3"/>
<circle cx="49.5" cy="49.5" r="40" stroke="#BA9166"/>
<g clip-path="url(#clip0)">
<path d="M73.7823 25.0799L29.1517 46.0107C28.5186 46.3077 28.5132 47.2093 29.143 47.5136L45.5985 55.4671L48.1157 67.6362C48.2579 68.324 49.1366 68.5342 49.5766 67.9925L52.8195 64.0008C53.1093 63.644 53.055 63.1199 52.6983 62.8301C52.3414 62.5401 51.8173 62.5944 51.5275 62.9513L49.3904 65.5818L47.487 56.3799C70.7391 67.6184 69.2927 66.9642 69.5763 66.9642C69.9969 66.9642 70.3554 66.649 70.4033 66.2254L74.9627 25.9269C75.0358 25.2805 74.3703 24.8041 73.7823 25.0799ZM68.8814 64.8717L47.7133 54.6404L65.4739 36.0862C65.7917 35.7541 65.7801 35.2273 65.4481 34.9093C65.116 34.5915 64.5891 34.6028 64.2713 34.935L46.1378 53.8789L31.441 46.7754L73.1414 27.2189L68.8814 64.8717ZM41.7612 67.604C41.3937 67.3277 40.872 67.4017 40.5958 67.7691C39.2881 69.5081 37.1667 70.5872 35.1815 70.0996C39.8554 64.2322 36.3594 60.2363 33.6081 60.2363C31.95 60.2363 30.5895 61.5477 29.9979 62.9704C29.0579 65.2314 30.0848 68.6792 32.4682 70.5649C30.5623 72.2904 28.2864 73.1647 25.8062 73.3372C25.3476 73.3691 25.0018 73.7667 25.0336 74.2251C25.066 74.6898 25.4708 75.0304 25.9217 74.9977C29.0003 74.7836 31.72 73.6282 33.962 71.4465C36.8233 72.6263 40.0365 71.2823 41.9262 68.7693C42.2024 68.402 42.1285 67.8802 41.7612 67.604ZM33.6326 69.3606C31.7154 67.9456 30.8806 65.1836 31.5349 63.6095C31.8222 62.9186 32.6112 61.9009 33.6079 61.9009C34.4491 61.9009 35.2603 62.7099 35.597 63.4728C36.2954 65.0552 35.2732 67.4254 33.6326 69.3606Z" fill="#BA9166"/>
</g>
<defs>
<clipPath id="clip0">
<rect width="50" height="50" fill="white" transform="translate(25 25)"/>
</clipPath>
</defs>
</svg>
