<svg width="50" height="50" viewBox="0 0 50 50" fill="none" xmlns="http://www.w3.org/2000/svg">
<g clip-path="url(#clip0)">
<path d="M48.7823 0.0798464L4.15173 21.0107C3.51858 21.3077 3.51317 22.2092 4.14299 22.5135L20.5985 30.467L23.1157 42.6362C23.2579 43.324 24.1366 43.5341 24.5766 42.9924L27.8195 39.0008C28.1093 38.644 28.055 38.1199 27.6983 37.8301C27.3414 37.5401 26.8173 37.5944 26.5275 37.9513L24.3904 40.5818L22.487 31.3798C45.7391 42.6183 44.2927 41.9642 44.5763 41.9642C44.9969 41.9642 45.3554 41.6489 45.4033 41.2254L49.9627 0.926892C50.0358 0.280424 49.3703 -0.195948 48.7823 0.0798464ZM43.8814 39.8716L22.7133 29.6404L40.4739 11.0861C40.7917 10.7541 40.7801 10.2272 40.4481 9.9093C40.116 9.59147 39.5891 9.60281 39.2713 9.93499L21.1378 28.8789L6.441 21.7754L48.1414 2.21889L43.8814 39.8716ZM16.7612 42.604C16.3937 42.3277 15.872 42.4016 15.5958 42.7691C14.2881 44.5081 12.1667 45.5871 10.1815 45.0995C14.8554 39.2321 11.3594 35.2363 8.60813 35.2363C6.95004 35.2363 5.58948 36.5476 4.99794 37.9704C4.05789 40.2314 5.08481 43.6792 7.46823 45.5649C5.56233 47.2904 3.28638 48.1647 0.806206 48.3372C0.347624 48.3691 0.00181476 48.7666 0.0336492 49.2251C0.0660037 49.6897 0.4708 50.0303 0.921684 49.9977C4.00026 49.7836 6.72002 48.6282 8.96195 46.4465C11.8233 47.6263 15.0365 46.2823 16.9262 43.7693C17.2024 43.402 17.1285 42.8802 16.7612 42.604ZM8.63258 44.3606C6.71544 42.9456 5.88057 40.1836 6.53494 38.6095C6.82218 37.9186 7.61118 36.9008 8.60792 36.9008C9.44914 36.9008 10.2603 37.7099 10.597 38.4728C11.2954 40.0551 10.2732 42.4253 8.63258 44.3606Z" fill="black"/>
</g>
<defs>
<clipPath id="clip0">
<rect width="50" height="50" fill="white"/>
</clipPath>
</defs>
</svg>
