<svg width="50" height="50" viewBox="0 0 50 50" fill="none" xmlns="http://www.w3.org/2000/svg">
<path d="M39.8438 42.9688C39.9177 42.968 39.9913 42.9575 40.0625 42.9375C40.2248 42.8902 40.3673 42.7915 40.4688 42.6562C40.5702 42.521 40.625 42.3565 40.625 42.1875V27.0039H49.2188C49.426 27.0039 49.6247 26.9216 49.7712 26.7751C49.9177 26.6286 50 26.4299 50 26.2227V7.8125C50 7.6053 49.9177 7.40659 49.7712 7.26007C49.6247 7.11356 49.426 7.03125 49.2188 7.03125H29.6875C29.4803 7.03125 29.2816 7.11356 29.1351 7.26007C28.9886 7.40659 28.9062 7.6053 28.9062 7.8125V26.207C28.9062 26.355 28.9482 26.5 29.0273 26.625L39.1836 42.6055C39.2541 42.7168 39.3516 42.8084 39.467 42.872C39.5824 42.9355 39.712 42.9688 39.8438 42.9688ZM48.4375 25.4258H39.8438C39.6365 25.4258 39.4378 25.5081 39.2913 25.6546C39.1448 25.8011 39.0625 25.9998 39.0625 26.207V39.4883L30.4688 25.9766V8.59375H48.4375V25.4258Z" fill="#BA9166"/>
<path d="M10.9375 42.9688C11.0115 42.968 11.085 42.9575 11.1562 42.9375C11.3185 42.8902 11.4611 42.7915 11.5625 42.6562C11.6639 42.521 11.7188 42.3565 11.7188 42.1875V27.0039H20.3125C20.5197 27.0039 20.7184 26.9216 20.8649 26.7751C21.0114 26.6286 21.0938 26.4299 21.0938 26.2227V7.8125C21.0938 7.6053 21.0114 7.40659 20.8649 7.26007C20.7184 7.11356 20.5197 7.03125 20.3125 7.03125H0.78125C0.574049 7.03125 0.375336 7.11356 0.228823 7.26007C0.0823097 7.40659 0 7.6053 0 7.8125V26.207C-3.43323e-05 26.355 0.0419579 26.5 0.121094 26.625L10.2773 42.6055C10.3478 42.7168 10.4453 42.8084 10.5607 42.872C10.6762 42.9355 10.8058 42.9688 10.9375 42.9688ZM19.5312 25.4258H10.9375C10.7303 25.4258 10.5316 25.5081 10.3851 25.6546C10.2386 25.8011 10.1562 25.9998 10.1562 26.207V39.4883L1.5625 25.9766V8.59375H19.5312V25.4258Z" fill="#BA9166"/>
</svg>
