<svg width="20" height="20" viewBox="0 0 20 20" fill="none" xmlns="http://www.w3.org/2000/svg">
<path d="M17.0664 2.93197C15.1779 1.04347 12.6682 0.00253296 9.99794 0.00253296C7.32771 0.00253296 4.81794 1.04347 2.92944 2.93197C1.04094 4.82047 0 7.33024 0 10.0005C0 12.6707 1.04094 15.1805 2.92944 17.069C4.81794 18.9575 7.32771 19.9984 9.99794 19.9984C11.5491 19.9984 12.9644 19.7104 14.0876 19.1714C15.1533 18.6571 15.9268 17.9207 16.2683 17.1019C16.6756 16.1186 16.4452 15.0941 15.6388 14.2877L15.61 14.2589C15.6223 14.2424 15.6388 14.2301 15.6511 14.2177C16.2271 13.6129 16.2271 12.8188 15.6429 12.2346L14.2193 10.811C13.9395 10.523 13.6021 10.3667 13.2442 10.3667C12.8862 10.3667 12.5447 10.5189 12.2567 10.8069L11.5161 11.5475C11.4791 11.5269 11.4462 11.5105 11.4092 11.494C11.3187 11.4487 11.2364 11.4076 11.1664 11.3623C10.4135 10.8851 9.73051 10.2597 9.07632 9.45738C8.78832 9.09531 8.59083 8.78673 8.44271 8.48227C8.62785 8.30946 8.80066 8.13255 8.96935 7.95974C9.03929 7.88568 9.11335 7.81574 9.18741 7.74168C9.79222 7.13687 9.79222 6.35513 9.18741 5.75032L8.48385 5.04676C8.40156 4.96447 8.32339 4.8863 8.24522 4.80401C8.08887 4.64355 7.92841 4.47898 7.75561 4.31852C7.47583 4.04285 7.14256 3.89885 6.78873 3.89885C6.43489 3.89885 6.09751 4.04285 5.8095 4.31852C5.80539 4.32263 5.80539 4.32263 5.80128 4.32675L4.91668 5.21134C4.56285 5.56517 4.35713 6.0013 4.31598 6.50325C4.25427 7.28498 4.48056 8.00912 4.65748 8.48227C5.08126 9.62607 5.71487 10.6876 6.65707 11.8231C7.80086 13.1891 9.17918 14.2712 10.755 15.0324C11.3598 15.3204 12.1703 15.6577 13.0837 15.7195C13.1413 15.7236 13.1989 15.7236 13.2565 15.7236C13.8943 15.7236 14.4332 15.4932 14.8529 15.0365C14.857 15.0324 14.8653 15.0241 14.8694 15.02C14.8817 15.0036 14.8982 14.9871 14.9146 14.9706L14.9393 14.9953C15.466 15.522 15.61 16.1227 15.3549 16.7357C14.8817 17.8589 13.0426 19.011 9.99794 19.011C5.02777 19.011 0.987451 14.9706 0.987451 10.0005C0.987451 5.0303 5.02777 0.989984 9.99794 0.989984C14.9681 0.989984 19.0084 5.0303 19.0084 10.0005C19.0084 10.8192 18.8973 11.6257 18.6834 12.4033C18.6093 12.6666 18.7657 12.9381 19.029 13.0122C19.2923 13.0863 19.5639 12.9299 19.6379 12.6666C19.8766 11.8026 20 10.9056 20 10.0005C19.9959 7.33024 18.9549 4.82047 17.0664 2.93197ZM14.1206 14.3658C13.886 14.6168 13.6227 14.7279 13.2565 14.7279C13.2195 14.7279 13.1825 14.7279 13.1454 14.7238C12.4049 14.6744 11.7054 14.3823 11.1829 14.1313C9.73874 13.4319 8.47151 12.4403 7.41823 11.1813C6.55009 10.1362 5.96996 9.16937 5.58321 8.13255C5.35281 7.50716 5.26641 7.02989 5.29932 6.57731C5.32401 6.30988 5.42275 6.09181 5.61613 5.90255L6.50072 5.02208C6.57066 4.95625 6.67764 4.87807 6.79284 4.87807C6.90804 4.87807 7.00679 4.95213 7.0685 5.01796C7.07262 5.02208 7.07673 5.02619 7.08085 5.0303C7.23719 5.17431 7.38531 5.32654 7.54166 5.487C7.62395 5.56929 7.70623 5.65569 7.78852 5.73798L8.49208 6.44154C8.71014 6.6596 8.71014 6.82006 8.49208 7.03812C8.41802 7.11218 8.34396 7.18624 8.2699 7.2603C8.05184 7.47836 7.85024 7.68819 7.62806 7.88568C7.61983 7.8898 7.61572 7.89803 7.60749 7.90626C7.29891 8.21483 7.40588 8.53576 7.4388 8.64273C7.44291 8.65507 7.44703 8.6633 7.45114 8.67564C7.6404 9.13234 7.90372 9.56024 8.30693 10.0704L8.31105 10.0745C9.03518 10.9674 9.79634 11.6586 10.6398 12.1934C10.7509 12.2634 10.862 12.321 10.9689 12.3745C11.0595 12.4197 11.1417 12.4609 11.2117 12.5061C11.224 12.5144 11.2405 12.5226 11.2569 12.5308C11.3639 12.5843 11.4709 12.609 11.5779 12.609C11.7589 12.609 11.9276 12.5349 12.0716 12.3868L12.9562 11.5022C13.0261 11.4323 13.129 11.35 13.2442 11.35C13.3512 11.35 13.4499 11.4282 13.5116 11.494C13.5157 11.4981 13.5157 11.4981 13.5199 11.5022L14.9434 12.9258C15.145 13.1274 15.145 13.3126 14.9352 13.5306L14.9311 13.5347C14.8365 13.6376 14.7336 13.7363 14.6225 13.8433C14.4579 14.0038 14.2851 14.1725 14.1206 14.3658Z" fill="white"/>
</svg>
