<svg width="99" height="99" viewBox="0 0 99 99" fill="none" xmlns="http://www.w3.org/2000/svg">
<circle cx="49.5" cy="49.5" r="48" stroke="#BA9166" stroke-width="3"/>
<circle cx="49.5" cy="49.5" r="40" stroke="#BA9166"/>
<path d="M67.3333 25H30.6667C26.9865 25.0041 24.0041 27.9865 24 31.6667V68.3333C24.0041 72.0135 26.9865 74.9959 30.6667 75H67.3333C71.0135 74.9959 73.9959 72.0135 74 68.3333V31.6667C73.9959 27.9865 71.0135 25.0041 67.3333 25ZM67.3333 73.3333H30.6667C27.9064 73.3306 25.6694 71.0936 25.6667 68.3333V50.8333H72.3333V68.3333C72.3306 71.0936 70.0936 73.3306 67.3333 73.3333ZM72.3333 49.1667H25.6667V31.6667C25.6694 28.9064 27.9064 26.6694 30.6667 26.6667H67.3333C70.0936 26.6694 72.3306 28.9064 72.3333 31.6667V49.1667Z" fill="#BA9166"/>
<path d="M35.6667 29.1667C35.6667 28.7065 35.2936 28.3334 34.8334 28.3334H30.6667C28.8257 28.3334 27.3334 29.8258 27.3334 31.6667V35.8334C27.3334 36.2936 27.7064 36.6667 28.1667 36.6667C28.6269 36.6667 29 36.2936 29 35.8334V31.6667C29 30.7462 29.7462 30 30.6667 30H34.8334C35.2936 30 35.6667 29.6269 35.6667 29.1667Z" fill="#BA9166"/>
<path d="M67.3334 28.3334H63.1667C62.7065 28.3334 62.3334 28.7065 62.3334 29.1667C62.3334 29.6269 62.7065 30 63.1667 30H67.3334C68.2539 30 69.0001 30.7462 69.0001 31.6667V35.8334C69.0001 36.2936 69.3732 36.6667 69.8334 36.6667C70.2936 36.6667 70.6667 36.2936 70.6667 35.8334V31.6667C70.6667 29.8258 69.1743 28.3334 67.3334 28.3334Z" fill="#BA9166"/>
<path d="M40.9875 32.5643C40.7835 32.4791 40.554 32.4786 40.3496 32.5626C40.1452 32.6467 39.9825 32.8086 39.8975 33.0126L36.5 41.1668L33.1025 33.0126C32.9878 32.7378 32.7353 32.545 32.44 32.5069C32.1447 32.4688 31.8515 32.5911 31.6709 32.8277C31.4902 33.0644 31.4495 33.3795 31.5641 33.6543L35.7308 43.6543C35.8602 43.9647 36.1636 44.1669 36.5 44.1669C36.8363 44.1669 37.1397 43.9647 37.2691 43.6543L41.4358 33.6543C41.5209 33.4503 41.5215 33.2208 41.4374 33.0164C41.3533 32.812 41.1915 32.6493 40.9875 32.5643Z" fill="#BA9166"/>
<path d="M63.1024 33.0124C62.973 32.702 62.6696 32.4998 62.3333 32.4998C61.9969 32.4998 61.6935 32.702 61.5641 33.0124L57.3974 43.0124C57.2202 43.4372 57.421 43.9252 57.8458 44.1024C58.2706 44.2796 58.7586 44.0789 58.9358 43.6541L60.1108 40.8333H64.5558L65.7308 43.6541C65.8454 43.9289 66.0979 44.1217 66.3932 44.1598C66.6885 44.1979 66.9817 44.0756 67.1624 43.839C67.343 43.6023 67.3837 43.2872 67.2691 43.0124L63.1024 33.0124ZM60.8058 39.1666L62.3333 35.4999L63.8608 39.1666H60.8058Z" fill="#BA9166"/>
<path d="M44 32.5C43.5398 32.5 43.1667 32.8731 43.1667 33.3333V43.3333C43.1667 43.7936 43.5398 44.1667 44 44.1667C44.4603 44.1667 44.8334 43.7936 44.8334 43.3333V33.3333C44.8334 32.8731 44.4603 32.5 44 32.5Z" fill="#BA9166"/>
<path d="M51.9167 34.1667C53.635 34.1667 54.8333 35.045 54.8333 35.8333C54.8333 36.2936 55.2064 36.6667 55.6667 36.6667C56.1269 36.6667 56.5 36.2936 56.5 35.8333C56.5 33.9642 54.4867 32.5 51.9167 32.5C49.3467 32.5 47.3333 33.9642 47.3333 35.8333C47.3333 37.7025 49.3467 39.1667 51.9167 39.1667C53.635 39.1667 54.8333 40.045 54.8333 40.8333C54.8333 41.6217 53.635 42.5 51.9167 42.5C50.1983 42.5 49 41.6217 49 40.8333C49 40.3731 48.6269 40 48.1667 40C47.7064 40 47.3333 40.3731 47.3333 40.8333C47.3333 42.7025 49.3467 44.1667 51.9167 44.1667C54.4867 44.1667 56.5 42.7025 56.5 40.8333C56.5 38.9642 54.4867 37.5 51.9167 37.5C50.1975 37.5 49 36.6217 49 35.8333C49 35.045 50.1975 34.1667 51.9167 34.1667Z" fill="#BA9166"/>
<path d="M46.5 52.5H30.6667C28.8257 52.5 27.3334 53.9924 27.3334 55.8333V68.3333C27.3334 70.1743 28.8257 71.6667 30.6667 71.6667H46.5C48.341 71.6667 49.8333 70.1743 49.8333 68.3333V55.8333C49.8333 53.9924 48.341 52.5 46.5 52.5ZM34 70V68.75C34 66.2187 36.052 64.1667 38.5833 64.1667C41.1147 64.1667 43.1667 66.2187 43.1667 68.75V70H34ZM36.5 60.4167C36.5 59.2661 37.4328 58.3333 38.5833 58.3333C39.7339 58.3333 40.6667 59.2661 40.6667 60.4167C40.6667 61.5673 39.7339 62.5 38.5833 62.5C37.4328 62.5 36.5 61.5673 36.5 60.4167ZM48.1667 68.3333C48.1667 69.2538 47.4205 70 46.5 70H44.8333V68.75C44.8316 66.3169 43.4179 64.1059 41.21 63.0833C42.2981 62.0168 42.6327 60.3981 42.0567 58.9876C41.4807 57.5771 40.1086 56.6553 38.585 56.6553C37.0615 56.6553 35.6893 57.5771 35.1133 58.9876C34.5373 60.3981 34.872 62.0168 35.96 63.0833C33.7509 64.1049 32.3357 66.3161 32.3333 68.75V70H30.6667C29.7462 70 29 69.2538 29 68.3333V55.8333C29 54.9129 29.7462 54.1667 30.6667 54.1667H46.5C47.4205 54.1667 48.1667 54.9129 48.1667 55.8333V68.3333Z" fill="#BA9166"/>
<path d="M61.0833 53.3334C56.2509 53.3334 52.3333 57.2509 52.3333 62.0834C52.3333 66.9159 56.2509 70.8334 61.0833 70.8334C65.9158 70.8334 69.8333 66.9159 69.8333 62.0834C69.8278 57.2532 65.9135 53.3389 61.0833 53.3334ZM61.0833 69.1667C57.1713 69.1667 54 65.9954 54 62.0834C54 58.1714 57.1713 55 61.0833 55C64.9954 55 68.1667 58.1714 68.1667 62.0834C68.1621 65.9935 64.9935 69.1621 61.0833 69.1667Z" fill="#BA9166"/>
<path d="M65.1175 59.3733L59.0342 64.6925L57.0858 62.7441C56.7588 62.4283 56.2391 62.4329 55.9176 62.7543C55.5962 63.0757 55.5917 63.5955 55.9075 63.9225L58.4075 66.4225C58.7179 66.7328 59.2157 66.7492 59.5458 66.46L66.2125 60.6266C66.4558 60.4362 66.5738 60.1267 66.519 59.8226C66.4641 59.5185 66.2455 59.2697 65.951 59.1762C65.6564 59.0827 65.3344 59.1598 65.1142 59.3766L65.1175 59.3733Z" fill="#BA9166"/>
</svg>
